<svg width="120" height="100" viewBox="0 0 120 100" fill="none" xmlns="http://www.w3.org/2000/svg">
<g clip-path="url(#clip0_21_2)">
<path d="M96.3215 38.1326C96.3215 39.3305 95.3807 40.2609 94.1658 40.2609C92.9509 40.2609 92.0101 39.3263 92.0101 38.1326C92.0101 36.9388 92.9509 36 94.1658 36C95.3807 36 96.3215 36.9346 96.3215 38.1326ZM92.3434 38.1326C92.3434 39.1521 93.1196 39.9593 94.1616 39.9593C95.2036 39.9593 95.9798 39.1521 95.9798 38.1326C95.9798 37.113 95.2036 36.3059 94.1616 36.3059C93.1196 36.3059 92.3434 37.113 92.3434 38.1326ZM93.6891 39.3645H93.3812V36.9006H94.3388C94.8998 36.9006 95.1487 37.1427 95.1487 37.5846C95.1487 38.0264 94.8576 38.2133 94.5244 38.2727L95.2668 39.3688H94.9083L94.208 38.2727H93.6933V39.3688L93.6891 39.3645ZM94.0941 38.0094C94.4695 38.0094 94.8408 37.9966 94.8408 37.5803C94.8408 37.2362 94.5497 37.1555 94.2502 37.1555H93.6891V38.0094H94.0941Z" fill="#14142B"/>
<path d="M92.1493 52.0069C90.8754 51.5949 89.5296 51.3612 88.3358 51.1531C87.298 50.9746 86.3995 50.8217 85.8469 50.5923C85.4377 50.4096 85.0538 50.176 85.0538 49.7002C85.0538 48.7954 85.7414 48.3578 87.1588 48.3578C87.7494 48.3578 88.3021 48.5405 88.7155 48.8761C89.209 49.2074 89.4832 49.6662 89.517 50.2015V50.2695H96.1865V50.193C95.9882 45.0782 90.3312 44.3136 86.9774 44.3136C85.6613 44.3136 83.147 44.4665 81.0884 45.5031C79.0551 46.5269 78.0215 48.1199 78.0215 50.2312C78.0215 53.4598 80.2658 55.1506 85.7667 56.0766C89.2006 56.6586 89.6604 56.9815 89.6604 57.9543C89.6604 58.9271 88.2514 59.301 87.3023 59.301C86.4965 59.301 85.7963 59.1098 85.425 58.7869C84.8935 58.3366 84.6151 57.8184 84.5813 57.2066V57.1387H78.0173C77.9878 54.628 76.5029 52.9458 73.474 52.0027C72.2 51.5864 70.85 51.357 69.6604 51.1488C68.6227 50.9704 67.7241 50.8175 67.1715 50.5881C66.7623 50.4054 66.3784 50.1718 66.3784 49.696C66.3784 48.7911 67.066 48.3536 68.4834 48.3536C69.074 48.3536 69.6267 48.5362 70.0401 48.8718C70.5336 49.2032 70.8078 49.662 70.8416 50.1972V50.2652H77.5111V50.1887C77.3128 45.074 71.6558 44.3093 68.3021 44.3093C66.9859 44.3093 64.4716 44.4623 62.413 45.4988C60.3797 46.5226 59.3461 48.1157 59.3461 50.227C59.3461 53.4556 61.5904 55.1463 67.0913 56.0724C70.5252 56.6544 70.985 56.9772 70.985 57.9501C70.985 58.9229 69.576 59.2967 68.6269 59.2967C67.8211 59.2967 67.1209 59.1056 66.7496 58.7827C66.2181 58.3324 65.9397 57.8141 65.9059 57.2024V57.1344H52.6977L52.6767 57.1684C51.8836 58.4896 50.8374 59.131 49.479 59.131C47.5132 59.131 46.2772 57.8736 46.0747 55.6773H59.1732V55.6051C59.1732 48.3111 55.7266 44.6152 48.9264 44.6152C45.3575 44.6152 42.2822 46.3654 40.6454 49.3136V45.2312L40.5864 45.2184C39.7638 45.0655 38.9074 45.108 38.1017 45.1802C35.908 45.3756 34.0097 46.7138 33.5288 47.0791V45.3926H26.8931V62.606L17.2073 49.3901L26.9184 36.2294H17.9709L8.25564 48.9186L8.27252 36.3016V36.2294H0.0337482L0 63.1923V63.2645H8.22189L8.27674 50.0273L17.6376 63.205L17.6587 63.2347L33.4486 63.2645H33.5204L33.5119 56.2593C33.5879 53.3196 34.3598 51.2465 37.895 50.673C38.6838 50.5456 39.3588 50.6263 39.9536 50.9152C39.595 51.9772 39.4136 53.086 39.4136 54.2117C39.4136 59.9722 43.379 63.6935 49.5212 63.6935C53.9971 63.6935 57.3508 61.5737 58.9876 57.7249C60.0802 62.7165 64.6826 63.77 68.378 63.77C75.4356 63.77 77.3423 60.7666 77.8317 58.77C78.8737 62.4488 83.2398 63.77 87.0534 63.77C88.9011 63.77 91.5377 63.5364 93.5836 62.4318C95.6465 61.3188 96.6927 59.5601 96.6927 57.2109C96.6927 54.6578 95.2078 52.9543 92.1451 52.0027L92.1493 52.0069ZM46.1211 52.0579C46.4501 50.176 47.6355 49.1819 49.555 49.1819C51.2002 49.1819 52.4489 50.4139 52.4826 52.0579H46.1211Z" fill="#14142B"/>
<path d="M101.379 44.9933V63.0266H105.13L106.404 62.0028L107.981 60.7368V63.0308H113.394V60.7368L114.972 62.0028L116.246 63.0266H119.996V44.9933H101.375H101.379ZM102.4 46.0171H107.986V53.7614L102.4 58.2474V46.0171ZM118.983 59.5559V61.9985H116.608L114.748 60.5032L112.381 58.6V61.9985H109.002V58.6L107.167 60.0741L104.775 61.9943H102.4V59.5516L109.002 54.2457V46.0086L112.381 48.6042V54.2457L118.983 59.5516V59.5559ZM118.983 58.2474L113.398 53.7614V48.1072L110.681 46.0171H118.983V58.2474Z" fill="#14142B"/>
</g>
<defs>
<clipPath id="clip0_21_2">
<rect width="120" height="27.77" fill="white" transform="translate(0 36)"/>
</clipPath>
</defs>
</svg>
