<?xml version="1.0" encoding="UTF-8"?>
<svg xmlns="http://www.w3.org/2000/svg" version="1.1" viewBox="0 0 120 100">
  <defs>
    <style>
      .cls-1 {
        fill: #14142b;
      }

      .cls-2 {
        fill: #15152c;
      }

      .cls-3 {
        display: none;
      }
    </style>
  </defs>
  <!-- Generator: Adobe Illustrator 28.7.1, SVG Export Plug-In . SVG Version: 1.2.0 Build 142)  -->
  <g>
    <g id="Capa_1" class="cls-3">
      <path class="cls-1" d="M26.7,23C11.9,23,0,34.9,0,49.7s11.9,26.7,26.7,26.7,26.7-11.9,26.7-26.7-11.9-26.7-26.7-26.7ZM51.6,49.7c0,13.8-11.2,24.9-24.9,24.9S1.7,63.4,1.7,49.7s11.2-24.9,24.9-24.9,24.9,11.2,24.9,24.9Z"/>
      <path class="cls-1" d="M39.6,38.4c.4.4.9,1,1.2,1.4l5.4-3.4c-.3-.4-.7-.9-1-1.3l-3.4,2.3-.2.2.2-.3,1.5-3-1.1-1.1-3,1.5-.3.2.2-.2,2.3-3.4c-.4-.3-.8-.6-1.3-1l-3.4,5.4c.4.3,1,.8,1.4,1.2l3.2-1.7.2-.2-.2.2-1.7,3.2Z"/>
      <path class="cls-1" d="M27.3,31.5l1.5-3.3v-.3c0,0,0,.3,0,.3l.2,4.4c.5,0,1.1.1,1.6.2l-.2-6.5c-.7,0-1.5-.1-2.2-.2l-1.5,3.6v.3c0,0-.1-.3-.1-.3l-1.5-3.6c-.7,0-1.5,0-2.2.2l-.2,6.5c.5,0,1.1-.2,1.6-.2l.2-4.4v-.3s0,.3,0,.3l1.5,3.3h1.3Z"/>
      <path class="cls-1" d="M15.4,36.7c.9-.9,1.3-1.9.5-2.9-.5-.5-1.2-.7-1.9-.4h0s0,0,0,0c0-.3.2-1.1-.5-1.6-.3-.3-.8-.4-1.2-.3-.8,0-1.4.6-3.1,2.5-.5.6-1.2,1.5-1.7,2l4.6,4.4c1.5-1.7,2.2-2.3,3.4-3.6ZM9.4,35.7c.9-1.1,1.9-2.2,2.4-2.6.1-.1.3-.3.5-.3.3,0,.6.1.7.4,0,.3-.1.6-.3.9-.5.6-2.3,2.4-2.3,2.4l-.9-.9ZM11.2,37.4s1.8-1.9,2.3-2.4c.2-.2.4-.4.5-.5.2,0,.4-.1.6,0,.2.1.3.4.2.6,0,.3-.3.5-.5.7-.2.3-2.3,2.5-2.3,2.5l-.9-.9Z"/>
      <path class="cls-1" d="M26.7,33.9c-8.7,0-15.8,7.1-15.8,15.8s7.1,15.8,15.8,15.8,15.8-7.1,15.8-15.8c0-8.7-7.1-15.8-15.8-15.8ZM26.7,49.7v14.9c-8.2,0-14.9-6.7-14.9-14.9h14.9v-14.9c8.2,0,14.9,6.7,14.9,14.9h-14.9Z"/>
      <path class="cls-1" d="M90.7,36.3c-2.5,0-4.9,1.3-6.1,3.5l-13.5,23.1h29.2c2.5,0,4.9-1.3,6.1-3.5l13.5-23.1h-29.3ZM73.4,61.7l12.4-21.2c1-1.8,3-2.9,5-2.9h6.3l-14,24.1h-9.6ZM103.5,58.3c-.7,1.2-2,2-3.5,2h-4.4l7.5-12.9c.5-.8,1.4-1.3,2.3-1.3h5.1l-7.1,12.2ZM110.1,44.3h-5.1l2.6-4.4h6.7l-1.8,3.1c-.5.8-1.4,1.3-2.3,1.3Z"/>
    </g>
    <g id="Capa_2">
      <g>
        <polygon class="cls-2" points="71.4 34.5 81.8 34.5 81.8 56.8 93.7 56.8 88.5 65.8 71.4 65.8 71.4 34.5"/>
        <polygon class="cls-2" points="23.8 34.5 17.8 52.1 13.1 38.6 15.4 34.5 0 34.5 12.7 66 22.7 66 35.3 34.5 23.8 34.5"/>
        <polygon class="cls-2" points="89.5 34.5 89.5 43.4 98.7 43.4 98.7 65.8 109.1 65.8 109.1 43.4 115.4 43.4 120 34.5 89.5 34.5"/>
        <g>
          <path class="cls-2" d="M43.7,50c0-4.4,3.6-8,8-8s8,3.6,8,8-3.6,8-8,8-8-3.6-8-8M40.1,50c0,6.4,5.2,11.6,11.6,11.6s11.6-5.2,11.6-11.6-5.2-11.6-11.6-11.6-11.6,5.2-11.6,11.6"/>
          <path class="cls-2" d="M48.3,50c0-1.9,1.5-3.4,3.4-3.4s3.4,1.5,3.4,3.4-1.5,3.4-3.4,3.4-3.4-1.5-3.4-3.4M46.5,49.4c-.4,2.9,1.7,5.5,4.6,5.8,2.9.4,5.5-1.7,5.8-4.6.4-2.9-1.7-5.5-4.6-5.8-2.9-.4-5.5,1.7-5.8,4.6"/>
          <path class="cls-2" d="M38.7,50c0-7.2,5.8-13,13-13s13,5.8,13,13-5.8,13-13,13-13-5.8-13-13M35.1,50c0,9.1,7.4,16.5,16.5,16.5s16.5-7.4,16.5-16.5-7.4-16.5-16.5-16.5-16.5,7.4-16.5,16.5"/>
        </g>
      </g>
    </g>
  </g>
</svg>